<?xml version="1.0" standalone="no"?><!DOCTYPE svg PUBLIC "-//W3C//DTD SVG 1.1//EN" "http://www.w3.org/Graphics/SVG/1.1/DTD/svg11.dtd"><svg t="1584524116187" class="icon" viewBox="0 0 1024 1024" version="1.1" xmlns="http://www.w3.org/2000/svg" p-id="10078" xmlns:xlink="http://www.w3.org/1999/xlink" width="200" height="200"><defs><style type="text/css"></style></defs><path d="M307.2 116.622222c19.911111-11.377778 45.511111-2.844444 56.888889 19.911111s2.844444 45.511111-19.911111 56.888889c-190.577778 91.022222-270.222222 318.577778-176.355556 506.311111s321.422222 264.533333 512 173.511111c190.577778-91.022222 270.222222-318.577778 176.355556-506.311111-36.977778-76.8-99.555556-136.533333-173.511111-173.511111-19.911111-11.377778-28.444444-36.977778-19.911111-56.888889 11.377778-19.911111 36.977778-28.444444 56.888888-19.911111 91.022222 45.511111 164.977778 119.466667 213.333334 210.488889 113.777778 230.4 17.066667 506.311111-216.177778 617.244445-233.244444 110.933333-514.844444 17.066667-628.622222-213.333334-110.933333-224.711111-14.222222-500.622222 219.022222-614.4z m204.8-88.177778c22.755556 0 42.666667 19.911111 42.666667 42.666667v312.888889c0 22.755556-19.911111 42.666667-42.666667 42.666667s-42.666667-19.911111-42.666667-42.666667v-312.888889c0-22.755556 19.911111-42.666667 42.666667-42.666667z" fill="#ffffff" p-id="10079"></path></svg>